<svg xmlns="http://www.w3.org/2000/svg" xmlns:xlink="http://www.w3.org/1999/xlink" width="500" zoomAndPan="magnify" viewBox="0 0 375 374.999991" height="500" preserveAspectRatio="xMidYMid meet" version="1.0"><defs><clipPath id="2e535048f3"><path d="M 0 0.234375 L 375 0.234375 L 375 374.757812 L 0 374.757812 Z M 0 0.234375 " clip-rule="nonzero"/></clipPath><clipPath id="3c43aa1866"><path d="M 160.292969 98 L 215 98 L 215 189.011719 L 160.292969 189.011719 Z M 160.292969 98 " clip-rule="nonzero"/></clipPath><clipPath id="54a4336c3e"><path d="M 211 98 L 266 98 L 266 189.011719 L 211 189.011719 Z M 211 98 " clip-rule="nonzero"/></clipPath><clipPath id="1f89a6a244"><path d="M 160.292969 70.082031 L 266 70.082031 L 266 130 L 160.292969 130 Z M 160.292969 70.082031 " clip-rule="nonzero"/></clipPath><clipPath id="b8d169f6df"><path d="M 109.078125 127 L 164 127 L 164 217.367188 L 109.078125 217.367188 Z M 109.078125 127 " clip-rule="nonzero"/></clipPath><clipPath id="30dfda8e54"><path d="M 160 127 L 215 127 L 215 217.367188 L 160 217.367188 Z M 160 127 " clip-rule="nonzero"/></clipPath><clipPath id="2cef1973bd"><path d="M 109.078125 98.441406 L 215 98.441406 L 215 158 L 109.078125 158 Z M 109.078125 98.441406 " clip-rule="nonzero"/></clipPath><clipPath id="bb0ae10148"><path d="M 109.078125 186 L 164 186 L 164 276.878906 L 109.078125 276.878906 Z M 109.078125 186 " clip-rule="nonzero"/></clipPath><clipPath id="5054d24699"><path d="M 160 186 L 215 186 L 215 276.878906 L 160 276.878906 Z M 160 186 " clip-rule="nonzero"/></clipPath><clipPath id="37cb1b15bf"><path d="M 109.078125 158 L 215 158 L 215 218 L 109.078125 218 Z M 109.078125 158 " clip-rule="nonzero"/></clipPath><clipPath id="a3b5173308"><path d="M 160.292969 214 L 215 214 L 215 304.824219 L 160.292969 304.824219 Z M 160.292969 214 " clip-rule="nonzero"/></clipPath><clipPath id="de7ffdbf2c"><path d="M 211 214 L 266 214 L 266 304.824219 L 211 304.824219 Z M 211 214 " clip-rule="nonzero"/></clipPath><clipPath id="b583e0c864"><path d="M 160.292969 185.898438 L 266 185.898438 L 266 246 L 160.292969 246 Z M 160.292969 185.898438 " clip-rule="nonzero"/></clipPath><clipPath id="f3319601b0"><rect x="0" width="375" y="0" height="375"/></clipPath></defs><g transform="matrix(1, 0, 0, 1, 0, 0)"><g clip-path="url(#f3319601b0)"><path fill="#ff751f" d="M 368.585938 154.757812 L 368.597656 154.769531 L 369.328125 159.355469 L 369.316406 159.347656 L 368.585938 154.757812 " fill-opacity="1" fill-rule="nonzero"/><path fill="#ff751f" d="M 278.148438 32.367188 L 281.863281 34.574219 C 281.492188 34.359375 281.058594 34.113281 280.507812 33.796875 C 279.699219 33.34375 278.832031 32.828125 278.148438 32.367188 " fill-opacity="1" fill-rule="nonzero"/><path fill="#ff751f" d="M 359.953125 113.664062 C 360.074219 113.875 360.25 114.191406 360.40625 114.472656 C 360.449219 114.601562 360.492188 114.730469 360.5625 114.929688 C 360.464844 114.746094 360.335938 114.519531 360.210938 114.292969 C 360.121094 114.070312 359.953125 113.664062 359.953125 113.664062 " fill-opacity="1" fill-rule="nonzero"/><path fill="#ff751f" d="M 365.453125 128.566406 C 365.882812 130.597656 367.46875 134.007812 368.039062 137.195312 C 367.265625 133.441406 365.621094 129.882812 364.519531 126.230469 C 364.585938 126.148438 365.074219 127.542969 365.453125 128.566406 " fill-opacity="1" fill-rule="nonzero"/><path fill="#ff751f" d="M 362.859375 133.527344 L 363.144531 134.292969 C 363.382812 134.96875 363.5625 135.488281 363.699219 135.878906 L 361.617188 130.332031 C 361.71875 130.582031 361.835938 130.878906 361.976562 131.21875 C 362.328125 132.136719 362.636719 132.949219 362.859375 133.527344 " fill-opacity="1" fill-rule="nonzero"/><path fill="#ff751f" d="M 357.339844 118.953125 L 357.339844 118.9375 L 357.511719 119.351562 L 357.511719 119.347656 L 357.339844 118.953125 " fill-opacity="1" fill-rule="nonzero"/><path fill="#ff751f" d="M 13.96875 253.394531 L 13.71875 252.601562 C 13.941406 253.207031 14.210938 253.941406 14.558594 254.894531 C 14.34375 254.347656 14.148438 253.851562 13.96875 253.394531 " fill-opacity="1" fill-rule="nonzero"/><path fill="#ff751f" d="M 367.902344 231.0625 C 367.867188 231.203125 367.828125 231.351562 367.757812 231.625 C 367.832031 231.324219 367.878906 231.128906 367.925781 230.933594 L 367.902344 231.0625 " fill-opacity="1" fill-rule="nonzero"/><path fill="#ff751f" d="M 364.097656 246.121094 C 362.890625 249.449219 362.890625 249.4375 362.234375 251.246094 C 362.859375 249.53125 363.445312 247.910156 364.097656 246.121094 " fill-opacity="1" fill-rule="nonzero"/><path fill="#ff751f" d="M 371.695312 205.265625 C 371.636719 206.882812 371.613281 207.605469 371.605469 207.804688 C 371.5625 208.257812 371.59375 209.074219 371.464844 209.71875 L 371.457031 209.671875 C 371.59375 208.589844 371.578125 207.488281 371.695312 205.265625 " fill-opacity="1" fill-rule="nonzero"/><path fill="#ff751f" d="M 373.394531 164.601562 C 373.453125 165.023438 373.507812 165.421875 373.546875 165.722656 C 373.558594 165.820312 373.59375 166.0625 373.613281 166.238281 C 373.582031 166.003906 373.527344 165.648438 373.515625 165.570312 C 373.496094 165.417969 373.441406 164.976562 373.394531 164.601562 " fill-opacity="1" fill-rule="nonzero"/><path fill="#ff751f" d="M 279.433594 351.304688 L 277.621094 352.378906 L 277.539062 352.425781 L 279.457031 351.289062 L 279.433594 351.304688 " fill-opacity="1" fill-rule="nonzero"/><path fill="#ff751f" d="M 372.152344 185.6875 C 372.195312 187.875 372.46875 189.796875 372.296875 191.730469 C 372.3125 188.085938 372.105469 187.800781 372.152344 185.6875 " fill-opacity="1" fill-rule="nonzero"/><path fill="#ff751f" d="M 371.941406 199.972656 C 371.9375 200.109375 371.929688 200.320312 371.925781 200.402344 C 371.917969 200.570312 371.898438 200.800781 371.882812 201.007812 L 371.914062 200.132812 C 371.921875 200.074219 371.941406 199.972656 371.941406 199.972656 " fill-opacity="1" fill-rule="nonzero"/><path fill="#ff751f" d="M 372.152344 188.585938 L 372.097656 187.894531 C 372.09375 187.824219 372.074219 187.34375 372.0625 187.039062 C 372.089844 187.382812 372.121094 187.796875 372.136719 188.007812 C 372.140625 188.101562 372.148438 188.386719 372.152344 188.585938 " fill-opacity="1" fill-rule="nonzero"/><path fill="#ff751f" d="M 372.28125 192.082031 L 372.261719 192.75 L 372.253906 192.738281 Z M 372.28125 192.082031 " fill-opacity="1" fill-rule="nonzero"/><path fill="#ff751f" d="M 372.105469 196.261719 C 372.101562 196.367188 372.09375 196.566406 372.09375 196.566406 C 372.09375 196.566406 372.082031 196.796875 372.078125 196.921875 C 372.078125 196.8125 372.082031 196.613281 372.082031 196.613281 C 372.082031 196.613281 372.09375 196.386719 372.105469 196.261719 " fill-opacity="1" fill-rule="nonzero"/><path fill="#ff751f" d="M 4.3125 189.824219 L 4.308594 189.496094 L 4.34375 189.503906 Z M 4.3125 189.824219 " fill-opacity="1" fill-rule="nonzero"/><path fill="#ff751f" d="M 10.28125 144.96875 C 10.390625 144.582031 10.613281 143.78125 10.9375 142.609375 C 10.804688 143.71875 10.714844 144.5 10.640625 145.117188 C 10.628906 145.675781 10.617188 146.109375 10.597656 146.792969 C 10.332031 147.550781 10.160156 148.039062 10.160156 148.039062 C 9.894531 148.003906 9.921875 147.007812 10.28125 144.96875 " fill-opacity="1" fill-rule="nonzero"/><path fill="#ff751f" d="M 16.203125 125.691406 C 16.394531 126.03125 16.085938 127.3125 15.671875 128.929688 C 15.21875 129.828125 14.832031 130.589844 14.445312 131.351562 C 14.75 130.289062 15.046875 129.253906 15.367188 128.144531 C 15.605469 127.441406 15.890625 126.605469 16.203125 125.691406 " fill-opacity="1" fill-rule="nonzero"/><path fill="#ff751f" d="M 285.523438 29.035156 C 286.796875 29.808594 287.859375 30.457031 289.238281 31.296875 C 287.066406 30.175781 287.066406 30.179688 285.523438 29.035156 " fill-opacity="1" fill-rule="nonzero"/><path fill="#ff751f" d="M 344.566406 96.152344 C 344.535156 96.109375 344.160156 95.558594 343.917969 95.195312 C 343.46875 94.492188 343.128906 93.902344 343.230469 93.972656 C 343.273438 94.03125 343.636719 94.558594 344.03125 95.128906 C 344.25 95.550781 344.460938 95.957031 344.566406 96.152344 " fill-opacity="1" fill-rule="nonzero"/><path fill="#ff751f" d="M 370.285156 217.019531 C 370.132812 218.074219 370.015625 218.898438 369.898438 219.71875 C 370.015625 218.925781 370.132812 218.074219 370.285156 217.019531 " fill-opacity="1" fill-rule="nonzero"/><path fill="#ff751f" d="M 24.972656 106.335938 C 24.84375 106.703125 24.710938 107.070312 24.597656 107.394531 C 24.378906 107.789062 24.230469 108.054688 24.082031 108.324219 C 24.175781 108.015625 24.230469 107.722656 24.378906 107.382812 C 24.523438 107.058594 24.773438 106.683594 24.972656 106.335938 " fill-opacity="1" fill-rule="nonzero"/><path fill="#ff751f" d="M 33.785156 90.601562 C 33.667969 90.832031 33.550781 91.082031 33.449219 91.296875 C 33.210938 91.660156 32.980469 92.019531 32.582031 92.636719 C 32.933594 91.992188 33.105469 91.679688 33.269531 91.375 L 33.785156 90.601562 " fill-opacity="1" fill-rule="nonzero"/><path fill="#ff751f" d="M 240.101562 367.484375 C 240.667969 367.34375 241.140625 367.226562 241.617188 367.105469 C 241.699219 367.085938 241.941406 367.023438 241.839844 367.050781 C 241.296875 367.1875 241.023438 367.257812 240.894531 367.285156 C 240.847656 367.296875 240.472656 367.390625 240.101562 367.484375 " fill-opacity="1" fill-rule="nonzero"/><path fill="#ff751f" d="M 356.800781 118.507812 L 356.546875 118.0625 L 356.226562 117.371094 C 356.367188 117.636719 356.535156 117.957031 356.628906 118.132812 C 356.648438 118.175781 356.742188 118.378906 356.800781 118.507812 " fill-opacity="1" fill-rule="nonzero"/><path fill="#ff751f" d="M 41.496094 79.429688 L 41.242188 79.820312 C 41.167969 79.890625 41.035156 80.027344 41.035156 80.027344 C 41.035156 80.027344 41.09375 79.890625 41.128906 79.808594 L 41.496094 79.429688 " fill-opacity="1" fill-rule="nonzero"/><path fill="#ff751f" d="M 354.15625 113.542969 C 354.140625 113.496094 354.09375 113.382812 354.125 113.429688 C 354.226562 113.625 354.265625 113.695312 354.375 113.898438 C 354.28125 113.757812 354.222656 113.652344 354.15625 113.542969 " fill-opacity="1" fill-rule="nonzero"/><path fill="#ff751f" d="M 14.398438 132.859375 L 14.359375 132.863281 L 14.484375 132.558594 Z M 14.398438 132.859375 " fill-opacity="1" fill-rule="nonzero"/><path fill="#ff751f" d="M 37.277344 85.207031 L 37.117188 85.480469 L 36.890625 85.746094 L 37.046875 85.476562 L 37.277344 85.207031 " fill-opacity="1" fill-rule="nonzero"/><path fill="#ff751f" d="M 275.039062 353.679688 L 275.4375 353.496094 L 275.035156 353.683594 Z M 275.039062 353.679688 " fill-opacity="1" fill-rule="nonzero"/><path fill="#ff751f" d="M 14.445312 131.351562 L 14.417969 131.457031 L 14.433594 131.382812 Z M 14.445312 131.351562 " fill-opacity="1" fill-rule="nonzero"/><path fill="#ff751f" d="M 14.417969 131.457031 L 14.414062 131.460938 L 14.414062 131.457031 Z M 14.417969 131.457031 " fill-opacity="1" fill-rule="nonzero"/><g clip-path="url(#2e535048f3)"><path fill="#ff751f" d="M 218.613281 372.132812 C 218.734375 372.113281 219.007812 372.074219 219.453125 372.003906 C 219.820312 371.949219 219.085938 372.0625 218.640625 372.128906 C 218.574219 372.136719 218.148438 372.203125 217.882812 372.242188 C 218.140625 372.203125 218.542969 372.144531 218.613281 372.132812 Z M 257.890625 361.183594 C 258.128906 361.097656 258.222656 361.0625 258.347656 361.015625 L 257.964844 361.15625 C 257.558594 361.304688 257.199219 361.4375 256.722656 361.609375 C 257.125 361.464844 257.542969 361.3125 257.890625 361.183594 Z M 272.574219 354.585938 C 272.773438 354.484375 272.890625 354.429688 273.039062 354.363281 C 272.875 354.441406 272.667969 354.535156 272.566406 354.589844 C 272.503906 354.613281 272.324219 354.703125 272.195312 354.765625 C 272.328125 354.703125 272.515625 354.613281 272.574219 354.585938 Z M 291.300781 343.804688 C 291.855469 343.5 292.347656 343.101562 292.859375 342.726562 L 292.863281 342.722656 C 292.347656 343.101562 291.84375 343.507812 291.273438 343.820312 Z M 296.453125 340.066406 L 297.582031 339.230469 C 297.660156 339.175781 297.847656 339.035156 297.984375 338.929688 C 297.820312 339.054688 297.550781 339.253906 297.507812 339.285156 C 297.132812 339.5625 296.804688 339.804688 296.449219 340.070312 Z M 303.398438 334.925781 C 303.449219 334.886719 303.59375 334.78125 303.707031 334.699219 C 303.707031 334.699219 303.648438 334.738281 303.613281 334.769531 C 303.554688 334.8125 303.414062 334.914062 303.300781 335 C 303.300781 335 303.363281 334.957031 303.398438 334.925781 Z M 321.460938 318.734375 C 319.3125 321.125 319.046875 321.324219 315.726562 324.285156 C 317.703125 322.527344 319.703125 320.792969 321.460938 318.734375 Z M 333.773438 304.800781 L 333.539062 305.105469 L 333.535156 305.117188 Z M 341.574219 294.546875 L 341.597656 294.503906 C 341.5 294.628906 341.394531 294.769531 341.324219 294.859375 C 341.324219 294.859375 341.207031 295.015625 341.144531 295.101562 Z M 354.726562 269.632812 L 355.632812 267.734375 L 355.640625 267.710938 L 354.679688 269.714844 Z M 364.097656 246.121094 C 363.445312 247.910156 362.859375 249.53125 362.234375 251.246094 C 362.890625 249.4375 362.890625 249.449219 364.097656 246.121094 Z M 367.902344 231.0625 L 367.925781 230.933594 C 367.878906 231.128906 367.832031 231.324219 367.757812 231.625 C 367.828125 231.351562 367.867188 231.203125 367.902344 231.0625 Z M 371.605469 207.804688 C 371.613281 207.605469 371.636719 206.882812 371.695312 205.265625 C 371.578125 207.488281 371.59375 208.589844 371.457031 209.671875 L 371.464844 209.71875 C 371.59375 209.074219 371.5625 208.257812 371.605469 207.804688 Z M 371.925781 200.402344 C 371.929688 200.320312 371.9375 200.109375 371.941406 199.972656 C 371.941406 199.972656 371.921875 200.074219 371.914062 200.132812 L 371.882812 201.007812 C 371.898438 200.800781 371.917969 200.570312 371.925781 200.402344 Z M 372.09375 196.566406 C 372.09375 196.566406 372.101562 196.367188 372.105469 196.261719 C 372.09375 196.386719 372.082031 196.613281 372.082031 196.613281 C 372.082031 196.613281 372.078125 196.8125 372.078125 196.921875 C 372.082031 196.796875 372.09375 196.566406 372.09375 196.566406 Z M 372.28125 192.082031 L 372.253906 192.738281 L 372.261719 192.75 Z M 372.152344 185.6875 C 372.105469 187.800781 372.3125 188.085938 372.296875 191.730469 C 372.46875 189.796875 372.195312 187.875 372.152344 185.6875 Z M 372.097656 187.894531 L 372.152344 188.585938 C 372.148438 188.386719 372.140625 188.101562 372.136719 188.007812 C 372.121094 187.796875 372.089844 187.382812 372.0625 187.039062 C 372.074219 187.34375 372.09375 187.824219 372.097656 187.894531 Z M 373.546875 165.722656 C 373.507812 165.421875 373.453125 165.023438 373.394531 164.601562 C 373.441406 164.976562 373.496094 165.417969 373.515625 165.570312 C 373.527344 165.648438 373.582031 166.003906 373.613281 166.238281 C 373.59375 166.0625 373.558594 165.820312 373.546875 165.722656 Z M 368.597656 154.769531 L 368.585938 154.757812 L 369.316406 159.347656 L 369.328125 159.355469 Z M 365.453125 128.566406 C 365.074219 127.542969 364.585938 126.148438 364.519531 126.230469 C 365.621094 129.882812 367.265625 133.441406 368.039062 137.195312 C 367.46875 134.007812 365.882812 130.597656 365.453125 128.566406 Z M 363.699219 135.878906 C 363.5625 135.488281 363.382812 134.96875 363.144531 134.292969 L 362.859375 133.527344 C 362.636719 132.949219 362.328125 132.136719 361.976562 131.21875 C 361.835938 130.878906 361.71875 130.582031 361.617188 130.332031 Z M 357.339844 118.9375 L 357.339844 118.953125 L 357.511719 119.347656 L 357.511719 119.351562 Z M 360.40625 114.472656 C 360.25 114.191406 360.074219 113.875 359.953125 113.664062 C 359.953125 113.664062 360.121094 114.070312 360.210938 114.292969 C 360.335938 114.519531 360.464844 114.746094 360.5625 114.929688 C 360.492188 114.730469 360.449219 114.601562 360.40625 114.472656 Z M 278.148438 32.367188 C 278.832031 32.828125 279.699219 33.34375 280.507812 33.796875 C 281.058594 34.113281 281.492188 34.359375 281.863281 34.574219 Z M 270.3125 28.351562 L 272.128906 29.199219 Z M 242.382812 8.710938 L 242.066406 8.644531 L 242.464844 8.757812 Z M 175.933594 0.992188 L 176.023438 1.015625 L 176.320312 0.984375 Z M 147.121094 5.023438 L 147.042969 5.078125 C 147.25 5.035156 147.292969 5.027344 147.40625 5 L 147.484375 4.945312 C 147.277344 4.992188 147.230469 5 147.121094 5.023438 Z M 40.183594 296.496094 L 40.003906 296.234375 L 39.988281 296.234375 Z M 84.597656 342.132812 C 84.992188 342.421875 85.414062 342.738281 85.875 343.082031 C 85.074219 342.476562 84.457031 342.011719 83.949219 341.625 Z M 114.386719 359.378906 C 116.421875 360.449219 118.699219 361.210938 121.164062 362.089844 C 116.957031 360.769531 113.058594 358.707031 109.027344 356.84375 C 110.929688 357.746094 112.679688 358.574219 114.386719 359.378906 Z M 135.140625 366.914062 C 133.199219 366.492188 131.390625 365.636719 129.511719 365.019531 C 131.34375 365.632812 133.148438 366.476562 135.140625 366.914062 Z M 208.472656 373.664062 C 211.269531 373.234375 214.113281 372.800781 216.652344 372.414062 C 221.285156 371.671875 226.097656 371.15625 230.484375 369.816406 C 232.964844 369.175781 235.429688 368.542969 237.960938 367.890625 C 239.730469 367.4375 241.394531 367.003906 243.296875 366.519531 C 243.296875 366.519531 243.886719 366.320312 244.132812 366.234375 C 245.363281 365.785156 246.007812 365.546875 246.785156 365.261719 C 247.84375 364.871094 247.691406 364.925781 247.585938 364.960938 C 245.824219 365.554688 243.722656 366.507812 242.335938 366.761719 C 240.554688 367.21875 237.195312 368.082031 234.3125 368.828125 C 234.121094 368.875 234.015625 368.902344 233.949219 368.917969 C 234.015625 368.90625 234.4375 368.796875 234.707031 368.726562 C 235.316406 368.566406 235.84375 368.433594 237.167969 368.089844 C 237.792969 367.929688 238.859375 367.65625 239.945312 367.375 L 243.257812 366.523438 C 244.519531 366.078125 244.242188 366.179688 244.777344 365.988281 C 247.234375 365.089844 249.519531 364.25 252.226562 363.257812 C 253.984375 362.617188 255.355469 362.109375 256.617188 361.652344 L 256.644531 361.640625 C 258.785156 360.886719 260.988281 360.082031 263.46875 358.78125 C 265.65625 357.726562 266.078125 357.523438 267.042969 357.058594 L 273.6875 353.851562 C 275.367188 353.136719 277.917969 351.714844 279.613281 350.601562 C 279.816406 350.480469 279.828125 350.472656 279.929688 350.410156 C 279.410156 350.730469 277.070312 352.160156 276.683594 352.394531 C 280.332031 350.175781 281.011719 349.761719 287.371094 345.890625 C 288.589844 345.144531 289.101562 344.835938 289.789062 344.414062 C 294.109375 341.71875 297.921875 338.472656 301.617188 335.832031 C 302.320312 335.304688 302.90625 334.859375 303.632812 334.3125 C 307.109375 331.890625 310.546875 328.238281 314.441406 324.847656 C 318.75 321.230469 322.445312 316.867188 326.152344 312.78125 C 326.730469 312.144531 326.769531 312.101562 327.292969 311.523438 C 333.140625 305.28125 332.457031 305.117188 338.097656 297.878906 C 338.792969 296.949219 339 296.667969 339.421875 296.101562 C 342.246094 292.5625 343.289062 290.097656 345.761719 286.21875 C 346.027344 285.78125 346.414062 285.132812 346.574219 284.863281 C 347.40625 283.480469 348.269531 282.050781 349.269531 280.386719 C 351.605469 276.667969 353.210938 272.515625 355.179688 268.578125 C 355.554688 267.785156 356.132812 266.574219 356.59375 265.605469 C 360.140625 258.050781 361.160156 253.609375 363.3125 248.167969 C 363.539062 247.527344 364.050781 246.097656 364.359375 245.238281 C 364.429688 244.957031 364.453125 244.855469 364.488281 244.722656 C 364.765625 243.59375 364.957031 242.808594 365.285156 241.480469 C 365.792969 239.476562 366.3125 237.429688 366.917969 235.054688 C 366.765625 235.570312 366.65625 235.953125 366.507812 236.445312 C 367.75 231.347656 368.988281 226.996094 369.453125 223.09375 C 370.027344 219.132812 370.648438 214.835938 371.261719 210.617188 C 371.261719 210.617188 370.828125 213.378906 370.96875 212.117188 C 371.199219 210.597656 371.476562 208.96875 371.484375 207.203125 C 371.554688 205.847656 371.699219 203.136719 371.835938 200.558594 C 371.925781 198.441406 372.007812 196.488281 372.09375 194.457031 C 372.226562 191.832031 372.191406 191.433594 372.175781 190.78125 C 372.066406 188.808594 371.960938 186.949219 371.832031 184.664062 C 371.824219 184.03125 371.8125 183.304688 371.800781 182.867188 C 371.566406 178.988281 371.371094 175.84375 371.179688 172.765625 C 371.074219 170.910156 370.644531 169.214844 370.496094 167.667969 C 370.417969 167.148438 370.246094 166.015625 370.109375 165.140625 C 369.917969 163.914062 369.890625 163.734375 369.601562 161.902344 C 369.15625 159.039062 368.773438 156.183594 368.1875 153.140625 C 367.925781 152.128906 367.632812 150.996094 367.363281 149.964844 C 366.953125 148.347656 367.269531 149.371094 367.3125 149.398438 C 367.035156 148.296875 366.738281 147.128906 366.609375 146.882812 C 366.472656 146.632812 366.171875 145.574219 365.808594 144.207031 C 365.109375 141.566406 364.355469 138.730469 363.628906 135.992188 C 363.304688 135.125 363.046875 134.441406 362.632812 133.339844 C 362.269531 132.414062 361.824219 131.277344 361.5625 130.601562 C 362.460938 133.164062 362.472656 133.222656 363.320312 135.371094 C 363.8125 136.613281 364.03125 137.765625 364.375 139.019531 C 364.5625 139.773438 364.664062 140.214844 364.527344 139.84375 C 364.429688 139.496094 364.285156 138.980469 364.242188 138.835938 C 363.5625 135.699219 362.234375 132.808594 361.125 129.832031 C 360.582031 128.363281 360 126.792969 359.464844 125.351562 C 359.691406 125.84375 359.84375 126.171875 360.054688 126.632812 C 359.714844 125.707031 359.359375 124.738281 359.230469 124.394531 C 358.292969 122.121094 357.671875 119.746094 356.476562 117.597656 C 353.867188 112.480469 351.796875 107.78125 348.550781 101.9375 C 345.277344 96.898438 342.410156 91.578125 338.878906 86.800781 C 333.804688 80.347656 329.945312 74.542969 324.640625 69.300781 C 320.816406 65.175781 317.082031 60.972656 312.714844 57.414062 C 308.476562 53.730469 304.457031 49.796875 299.78125 46.648438 L 298.414062 45.65625 C 294.015625 42.460938 289.726562 39.164062 284.941406 36.539062 C 281.980469 34.757812 278.863281 32.902344 276.4375 31.710938 C 276.046875 31.464844 275.707031 31.246094 275.34375 31.015625 L 275.34375 31.007812 L 275.25 30.953125 L 272.746094 29.671875 C 269.507812 28.152344 267.03125 26.988281 264.171875 25.644531 C 260.84375 23.945312 257.347656 22.628906 252.769531 20.96875 C 255.519531 21.925781 257.054688 22.460938 258.691406 23.027344 C 258.691406 23.027344 258.792969 23.0625 258.898438 23.097656 C 258.511719 22.953125 258.085938 22.796875 257.539062 22.59375 C 256.496094 22.238281 255.324219 21.84375 254.203125 21.457031 C 251.390625 20.484375 248.578125 19.511719 246.105469 18.65625 C 244.164062 17.972656 242.558594 17.3125 240.183594 16.8125 C 241.203125 17.136719 241.703125 17.292969 242.464844 17.539062 C 239.027344 16.765625 235.71875 16.023438 232.632812 15.328125 C 232.097656 15.265625 231.515625 15.199219 231.148438 15.15625 C 230.953125 15.144531 229.863281 14.898438 229.265625 14.742188 C 228.125 14.4375 228.03125 14.332031 228.488281 14.347656 L 228.550781 14.347656 C 224.554688 13.144531 220.394531 12.949219 216.355469 12.316406 C 216.597656 12.355469 216.875 12.40625 217.21875 12.46875 C 216.015625 12.496094 215.03125 12.371094 211.675781 11.703125 C 208.402344 11.152344 204.839844 10.988281 201.417969 10.976562 C 195.003906 10.886719 188.753906 10.308594 182.605469 10.65625 C 180.789062 10.671875 178.351562 10.785156 176.320312 10.929688 C 171.839844 11.082031 167.367188 11.75 162.941406 12.605469 C 158.535156 13.488281 154.058594 13.863281 149.910156 15.222656 C 145.792969 16.457031 141.769531 17.535156 137.679688 18.503906 C 134.832031 19.039062 132.417969 20.21875 129.722656 21.226562 C 127.199219 22.242188 124.25 23.417969 121.886719 24.203125 C 118.132812 25.257812 115.148438 27.09375 111.789062 28.777344 C 110.421875 29.460938 108.84375 30.246094 107.359375 30.988281 C 102.734375 33 98.667969 35.972656 94.464844 38.433594 C 88.078125 41.976562 82.824219 46.898438 76.757812 51.0625 C 73.972656 53.195312 71.523438 55.6875 68.855469 57.964844 C 65.996094 60.722656 62.722656 63.207031 60.308594 66.285156 C 57.96875 68.914062 55.664062 71.503906 53.289062 74.167969 C 43.21875 86.074219 34.054688 99.019531 27.4375 113.171875 C 26.039062 116.132812 24.398438 118.992188 23.199219 122.03125 L 19.726562 131.195312 C 17.113281 137.210938 15.800781 143.632812 13.988281 149.929688 C 12.792969 153.675781 12.25 157.550781 11.601562 161.425781 C 10.996094 165.304688 10.175781 169.171875 9.722656 173.113281 C 9.351562 178.445312 8.964844 183.9375 8.578125 189.546875 C 8.53125 194.144531 8.800781 198.929688 8.898438 203.863281 C 8.8125 208.265625 9.554688 212.992188 10.117188 217.371094 C 10.378906 219.363281 10.59375 220.996094 10.832031 222.796875 L 10.6875 221.539062 C 10.8125 221.617188 11.035156 222.964844 11.121094 223.742188 C 11.253906 225.992188 12.054688 228.988281 12.253906 230.554688 L 11.984375 229.722656 L 14.828125 241.90625 C 15.074219 242.878906 15.242188 243.875 15.554688 244.828125 C 15.515625 244.578125 15.390625 243.746094 15.414062 243.511719 C 16.066406 245.457031 16.371094 245.941406 16.933594 248.007812 C 17.308594 249.34375 17.640625 250.515625 17.976562 251.707031 C 17.867188 251.472656 17.777344 251.289062 17.707031 251.128906 C 19.222656 255.230469 20.3125 259.566406 22.230469 263.59375 C 22.230469 263.59375 22.210938 263.472656 22.167969 263.324219 C 21.898438 262.480469 22.398438 263.402344 23.195312 264.964844 C 23.625 266.136719 23.996094 267.121094 24.347656 268.078125 C 24.410156 268.214844 24.605469 268.648438 24.738281 268.949219 C 25.207031 269.792969 24.316406 267.664062 25.023438 268.996094 C 26.484375 272.265625 26.613281 272.921875 27 274.058594 L 27.203125 274.503906 C 27.738281 275.59375 28.046875 276.21875 28.691406 277.523438 C 30.324219 280.429688 31.332031 282 32.003906 282.882812 C 32.65625 284.058594 33.175781 284.996094 33.757812 286.050781 C 34.367188 287.09375 35.050781 288.269531 35.699219 289.386719 C 35.875 289.699219 36.097656 290.082031 36.214844 290.296875 C 36.914062 291.730469 37.84375 293.144531 39.03125 294.652344 C 39.980469 295.976562 40.933594 297.304688 41.90625 298.660156 C 42.59375 299.605469 43.355469 300.648438 44.058594 301.617188 C 43.941406 301.363281 43.371094 300.566406 42.632812 299.554688 C 42.097656 298.816406 41.953125 298.554688 42.304688 298.992188 C 42.539062 299.3125 42.960938 299.871094 43.65625 300.800781 C 42.742188 299.523438 42.222656 298.792969 41.6875 298.042969 C 41.226562 297.402344 40.558594 296.503906 40.511719 296.332031 C 41.574219 297.808594 42.664062 299.3125 43.691406 300.738281 C 44.507812 301.925781 45.21875 302.964844 45.972656 304.0625 C 48.347656 307.410156 49.109375 307.914062 51.125 310.429688 C 51.914062 311.347656 52.523438 312.058594 53.433594 313.109375 L 55.257812 315.199219 C 56.707031 316.859375 57.464844 317.769531 57.722656 318.15625 C 57.957031 318.484375 58.210938 318.84375 58.472656 319.210938 C 59.652344 320.585938 60.878906 321.550781 61.78125 322.480469 C 65.335938 325.8125 68.917969 329.171875 71.910156 331.980469 C 84.289062 341.71875 96.234375 350.394531 110.328125 356.738281 C 113.382812 358.136719 116.238281 359.863281 118.949219 360.765625 C 121.367188 361.671875 124.308594 362.773438 127.355469 363.910156 C 130.792969 365.171875 134.195312 366.582031 137.769531 367.359375 C 140.761719 368.140625 143.734375 368.917969 146.789062 369.71875 C 144.949219 369.242188 144.992188 369.253906 143.984375 368.992188 C 140.179688 367.945312 136.386719 367.132812 132.820312 365.960938 C 129.335938 364.675781 125.945312 363.429688 122.542969 362.175781 C 121.203125 361.683594 119.550781 361.078125 118.046875 360.527344 C 117.039062 360.203125 116.046875 359.671875 114.65625 359.007812 C 115.746094 359.507812 116.351562 359.9375 117.765625 360.453125 C 112.183594 357.921875 107.511719 355.515625 103.050781 353.378906 C 98.59375 351.183594 94.636719 348.335938 90.15625 345.730469 C 90.320312 345.832031 90.40625 345.890625 90.488281 345.945312 C 95.644531 349.007812 100.367188 352.40625 106.109375 354.894531 C 106.960938 355.308594 107.851562 355.742188 108.714844 356.164062 C 113.449219 358.542969 118.1875 360.851562 123.261719 362.511719 C 128.292969 364.246094 133.214844 366.511719 138.476562 367.613281 C 142.957031 368.761719 147.460938 369.914062 151.917969 371.050781 C 156.699219 371.785156 161.453125 372.515625 166.1875 373.242188 C 168.042969 373.503906 169.835938 373.886719 171.578125 373.890625 C 176.378906 374.136719 181.144531 374.375 185.917969 374.621094 C 186.636719 374.65625 187.269531 374.6875 188.695312 374.757812 C 185.71875 374.609375 183.863281 374.515625 181.878906 374.414062 C 179.933594 374.316406 177.921875 374.214844 176.046875 374.121094 C 170.785156 374.070312 165.601562 373.191406 160.40625 372.375 C 155.195312 371.660156 150 370.835938 144.953125 369.335938 L 141.871094 368.546875 L 141.820312 368.535156 C 143.851562 369.058594 145.882812 369.578125 148.140625 370.160156 C 146.277344 369.683594 144.507812 369.234375 142.417969 368.703125 C 140.300781 368.164062 138.132812 367.609375 135.988281 367.0625 C 144.09375 369.121094 152.3125 371.523438 160.9375 372.464844 C 161.46875 372.542969 162.089844 372.640625 162.8125 372.753906 C 163.515625 372.859375 164.359375 372.988281 165.582031 373.171875 C 162.558594 372.71875 160.261719 372.371094 157.734375 371.992188 L 156.917969 371.867188 C 158.121094 372.050781 159.261719 372.222656 161.246094 372.523438 C 158.191406 372.0625 156.171875 371.761719 154.105469 371.453125 C 150.625 371.089844 147.617188 369.949219 144.660156 369.320312 C 143.921875 369.136719 142.914062 368.882812 141.574219 368.542969 C 143.714844 369.089844 145.5 369.542969 147.113281 369.949219 C 148.871094 370.324219 150.367188 370.945312 153.101562 371.316406 C 146.636719 370.003906 141.503906 368.476562 136.3125 367.238281 C 131.347656 365.992188 127 364.039062 122.957031 362.734375 C 123.636719 362.980469 124.335938 363.230469 125.054688 363.488281 C 123.753906 363.027344 123.167969 362.816406 122.566406 362.605469 C 118.085938 361.179688 113.988281 359.300781 109.96875 357.328125 C 108.765625 356.761719 107.511719 356.171875 106.355469 355.628906 C 105.09375 355.042969 103.902344 354.488281 102.503906 353.839844 C 101.472656 353.332031 100.488281 352.882812 99.503906 352.21875 L 95.265625 349.695312 C 95.507812 349.855469 95.699219 349.976562 95.90625 350.109375 C 94.640625 349.371094 93.449219 348.675781 92.0625 347.863281 C 91.507812 347.542969 91.070312 347.289062 90.53125 346.980469 C 87.515625 345.300781 84.265625 343.375 80.980469 340.8125 C 77.71875 338.46875 74.609375 336.238281 71.792969 334.210938 C 71.015625 333.738281 69.859375 332.710938 68.894531 331.851562 C 63.496094 326.910156 57.726562 322.59375 53.339844 317.496094 C 51.644531 315.714844 49.957031 313.941406 48.355469 312.253906 C 47.992188 311.871094 47.332031 311.171875 46.84375 310.65625 C 45.320312 309.132812 44.074219 307.523438 42.828125 305.90625 C 41.597656 304.328125 40.34375 302.722656 39.226562 301.289062 C 38.375 300.128906 37.691406 299.191406 36.960938 298.195312 C 35.617188 296.488281 34.171875 294.914062 32.957031 292.78125 C 31.695312 290.765625 30.355469 288.621094 29.117188 286.636719 C 28.976562 286.421875 28.582031 285.804688 28.296875 285.371094 L 27.121094 283.539062 C 26.125 281.90625 24.871094 280.058594 24.167969 278.714844 C 23.074219 276.523438 22.375 275.117188 21.496094 273.355469 C 21.066406 272.503906 20.558594 271.507812 20.203125 270.808594 C 18.695312 267.800781 16.707031 264.46875 15.488281 261.300781 C 14.851562 259.660156 14.269531 258.15625 13.660156 256.59375 L 13.609375 256.449219 C 13.011719 254.921875 12.433594 253.449219 11.871094 252.007812 C 10.996094 249.832031 9.992188 247.714844 9.3125 245.226562 C 9.144531 244.597656 8.933594 243.84375 8.730469 243.101562 C 8.460938 242.128906 8.214844 241.246094 7.925781 240.203125 C 7.289062 238.019531 6.679688 235.9375 6.050781 233.792969 C 5.246094 231.015625 4.417969 227.960938 3.960938 224.894531 C 3.5625 222.601562 3.183594 220.433594 2.78125 218.121094 C 2.601562 217.042969 2.398438 215.855469 2.207031 214.722656 C 0.964844 209.050781 0.859375 203.324219 0.445312 197.492188 C 0.414062 197.140625 0.382812 196.71875 0.355469 196.347656 C -0.492188 190.0625 0.191406 183.589844 0.289062 177.214844 C 0.835938 163.65625 3.3125 149.996094 6.832031 136.800781 C 7.953125 131.914062 9.976562 127.324219 11.511719 122.582031 C 13.003906 117.804688 15.082031 113.277344 17.265625 108.777344 L 21.382812 100.003906 L 26.324219 91.675781 C 26.996094 90.519531 27.707031 89.300781 28.351562 88.1875 C 28.75 87.464844 29.246094 86.523438 28.839844 86.953125 C 28.328125 87.730469 27.835938 88.480469 27.132812 89.554688 C 29.515625 85.199219 31.402344 82.707031 33.269531 80.769531 C 34.621094 78.902344 35.820312 77.246094 36.839844 75.839844 C 39.453125 72.515625 41.910156 68.953125 44.933594 65.921875 C 46.503906 64.25 48.03125 62.625 49.589844 60.96875 C 51.285156 59.148438 52.835938 57.125 54.605469 55.367188 C 59.429688 51.0625 64.054688 46.496094 69.070312 42.410156 C 74.320312 38.617188 79.292969 34.421875 84.828125 31.082031 C 88.289062 28.980469 91.894531 26.792969 95.332031 24.710938 C 98.863281 22.421875 102.546875 21.046875 106.054688 19.121094 C 106.894531 18.71875 107.816406 18.277344 108.699219 17.855469 L 114.507812 15.085938 L 120.550781 12.878906 C 120.914062 12.742188 121.339844 12.578125 121.625 12.46875 C 124.675781 11.128906 127.882812 10.050781 131.171875 8.976562 C 132.375 8.511719 133.804688 8.28125 135.121094 7.90625 C 138.746094 6.992188 142.246094 6.109375 145.976562 5.171875 C 148.367188 4.582031 149.375 4.210938 149.59375 3.933594 C 151.242188 3.703125 152.707031 3.785156 155.558594 3.351562 C 157.355469 2.996094 159.378906 2.597656 161.40625 2.195312 C 163.714844 1.976562 165.875 1.792969 167.910156 1.1875 C 168.515625 0.957031 170.273438 0.808594 171.503906 0.734375 C 174.511719 0.875 176.15625 0.832031 179.0625 0.523438 C 179.785156 0.417969 180.289062 0.347656 180.777344 0.277344 C 183.433594 0.277344 185.71875 0.277344 187.738281 0.277344 C 189.941406 0.144531 191.789062 0.328125 193.863281 0.339844 C 195.585938 0.621094 197.527344 0.785156 200 0.789062 C 201.5625 0.789062 203.316406 0.925781 205.019531 1.117188 C 205.925781 1.1875 207.273438 1.289062 208.304688 1.371094 C 212.394531 1.984375 216.507812 2.597656 220.640625 3.222656 L 226.839844 4.230469 L 232.929688 5.851562 C 233.195312 5.90625 233.441406 5.949219 233.777344 6.011719 C 233.945312 6.035156 234.179688 6.058594 234.351562 6.074219 C 235.539062 6.261719 236.925781 6.601562 238.257812 7.027344 C 238.742188 7.1875 239.222656 7.351562 239.601562 7.480469 C 242.148438 8.429688 245.402344 9.222656 248.8125 10.609375 C 253.863281 12.523438 259.125 14.367188 264.039062 16.449219 C 264.644531 16.753906 265.414062 17.148438 266.09375 17.496094 C 267.679688 18.3125 267.675781 18.117188 268.726562 18.617188 C 269.753906 19.199219 270.632812 19.695312 271.675781 20.289062 C 272.644531 20.8125 273.804688 21.375 274.285156 21.492188 C 274.527344 21.546875 274.539062 21.480469 275.460938 21.957031 C 276.175781 22.359375 277.351562 23.035156 277.433594 23.082031 C 279.078125 23.660156 280.699219 24.929688 282.234375 25.824219 C 282.832031 26.164062 283.382812 26.476562 283.902344 26.769531 C 285.871094 27.859375 286.457031 28.210938 288.074219 29.375 C 288.875 29.957031 289.558594 30.433594 290.617188 31.078125 C 293.121094 32.53125 295.492188 34.097656 297.683594 35.988281 C 298.300781 36.488281 298.75 36.761719 298.296875 36.324219 C 296.222656 34.671875 294.109375 33.003906 291.730469 31.605469 C 291.871094 31.660156 291.914062 31.660156 291.996094 31.710938 C 293.378906 32.5625 294.777344 33.347656 295.832031 34.214844 C 296.449219 34.691406 296.59375 34.800781 297.214844 35.28125 C 300 37.46875 302.585938 39.5 305.3125 41.640625 C 305.433594 41.742188 305.546875 41.851562 305.722656 42.003906 C 304.648438 41.195312 304.648438 41.195312 303.71875 40.582031 C 304.597656 41.265625 305.359375 41.867188 306.109375 42.453125 C 307.449219 43.507812 308.285156 44.089844 309.085938 44.59375 C 310.042969 45.289062 311.199219 46.390625 313.5625 48.796875 C 312.40625 47.730469 311.585938 46.976562 310.761719 46.214844 C 311.355469 46.859375 311.992188 47.484375 312.636719 48.085938 C 317.550781 52.710938 322.703125 57.207031 327.011719 62.492188 C 329.113281 64.730469 331.199219 67.160156 333.285156 69.585938 C 333.421875 69.722656 333.613281 69.917969 333.804688 70.109375 C 333.601562 69.699219 332.992188 68.851562 331.46875 67.019531 C 334.1875 69.859375 336.222656 72.769531 338.367188 75.707031 C 337.921875 75.347656 337.523438 75.023438 337.121094 74.695312 C 340.757812 79.96875 344.46875 84.335938 347.449219 89.96875 C 348.984375 92.535156 350.417969 94.9375 351.632812 96.972656 C 352.171875 97.941406 352.710938 98.914062 352.984375 99.40625 C 355.089844 102.953125 356.59375 106.902344 358.40625 110.695312 C 358.730469 111.375 359.078125 112.101562 359.730469 113.460938 C 358.953125 111.714844 358.527344 110.761719 358.117188 109.835938 C 358.820312 111.183594 359.464844 112.421875 360.164062 113.765625 C 360.59375 114.703125 361.0625 115.742188 361.507812 116.710938 C 361.917969 117.714844 362.105469 118.714844 362.402344 119.664062 C 363.136719 121.742188 363.855469 123.789062 364.394531 125.308594 C 364.839844 126.578125 365.269531 127.84375 365.457031 128.570312 C 366.101562 130.40625 366.464844 131.457031 367.503906 134.441406 C 368.113281 136.652344 368.484375 138.503906 368.867188 140.242188 C 369.011719 140.960938 369.207031 141.90625 369.371094 142.707031 C 369.886719 144.804688 370.378906 146.8125 370.871094 148.820312 L 370.851562 148.734375 C 371.46875 151.21875 372.046875 154.207031 372.339844 156.867188 C 372.703125 159.332031 373.109375 162.097656 373.425781 164.25 C 373.792969 167.042969 374.382812 169.84375 374.492188 172.796875 C 374.480469 173.183594 374.464844 173.523438 374.453125 173.851562 C 374.550781 176.054688 374.628906 177.867188 374.707031 179.636719 C 374.707031 180.058594 374.703125 180.414062 374.703125 180.800781 C 374.761719 182.167969 374.8125 183.269531 374.886719 185.082031 C 374.921875 185.699219 374.949219 186.109375 374.96875 186.402344 C 375.0625 188.816406 375.128906 190.988281 374.921875 192.945312 C 374.6875 196.164062 374.523438 198.425781 374.335938 201.007812 C 374.3125 201.351562 374.269531 201.644531 374.265625 201.542969 C 374.269531 201.433594 374.292969 200.855469 374.3125 200.425781 C 374.433594 198.542969 374.515625 197.28125 374.605469 195.84375 L 374.929688 190.851562 C 374.492188 197.441406 374.1875 202.058594 373.863281 206.9375 C 373.804688 207.828125 373.722656 209.160156 373.699219 209.554688 C 373.476562 210.902344 373.195312 212.664062 372.902344 214.464844 C 372.859375 214.941406 372.707031 216.007812 372.335938 218.109375 C 372.019531 220.007812 371.726562 221.773438 371.421875 223.605469 C 371.238281 224.722656 371.136719 225.355469 370.949219 226.519531 C 370.871094 226.804688 370.8125 227.023438 370.734375 227.304688 C 369.03125 233.820312 367.355469 240.4375 365.339844 247.007812 C 365.734375 246.070312 366.003906 245.285156 366.382812 243.785156 C 365.992188 245.410156 365.640625 246.332031 365.261719 247.292969 C 364.886719 248.289062 364.496094 249.324219 364.164062 250.203125 C 363.789062 251.140625 363.492188 251.890625 363.210938 252.605469 C 361.695312 256.632812 361.683594 256.667969 360.09375 260.902344 C 359.832031 261.609375 359.359375 262.875 359 263.5 C 358.746094 264.019531 358.726562 264.046875 358.019531 265.488281 C 357.050781 267.4375 356.316406 268.914062 355.457031 270.644531 C 354.667969 272.253906 354.121094 273.375 353.4375 274.765625 C 353.273438 275.109375 353.089844 275.5 352.976562 275.738281 C 352.417969 276.851562 352.179688 277.332031 351.953125 277.789062 C 350.894531 279.855469 349.539062 281.742188 348.34375 283.753906 C 347.285156 285.464844 346.484375 286.753906 345.078125 289.023438 C 344.011719 290.757812 343.121094 292.210938 342.582031 293.085938 C 342.292969 293.5625 342.09375 293.921875 341.699219 294.417969 C 340.625 295.8125 339.679688 297.042969 338.878906 298.085938 C 337.816406 299.496094 336.496094 301.234375 336.199219 301.628906 C 335.378906 302.707031 334.5 303.867188 332.835938 306.066406 C 331.589844 307.84375 330.101562 309.386719 328.863281 310.699219 C 327.769531 311.890625 326.273438 313.507812 324.953125 314.945312 C 324.070312 315.90625 323.121094 316.941406 321.929688 318.242188 C 321.332031 318.890625 321.015625 319.234375 319.640625 320.722656 C 317.667969 322.625 316.476562 323.597656 315.417969 324.5625 C 313.59375 326.203125 311.371094 328.203125 309.304688 330.066406 C 307.195312 332.097656 304.789062 334.003906 301.359375 336.441406 C 297.925781 338.960938 294.660156 341.363281 291.433594 343.734375 C 290.339844 344.386719 290.375 344.367188 288.429688 345.53125 C 287.113281 346.328125 286.230469 346.855469 285.144531 347.507812 C 283.886719 348.265625 282.738281 348.957031 281.46875 349.71875 C 281.59375 349.648438 282.550781 349.074219 281.742188 349.5625 C 281.105469 349.945312 280.644531 350.222656 280.03125 350.59375 C 278.6875 351.402344 278.191406 351.703125 277.316406 352.230469 C 276.953125 352.441406 276.675781 352.640625 276.390625 352.765625 C 273.105469 354.332031 270.167969 355.734375 267.285156 357.113281 C 264.683594 358.355469 262.601562 359.34375 262.035156 359.613281 C 261.898438 359.679688 261.117188 360.046875 260.40625 360.386719 C 259.363281 360.761719 259.148438 360.84375 256.570312 361.777344 C 253.910156 362.746094 253.214844 363 252.523438 363.25 C 249.375 364.28125 246.71875 365.609375 241.246094 367.105469 C 238.710938 367.75 237.835938 367.972656 236.328125 368.355469 C 235.417969 368.589844 234.550781 368.8125 233.601562 369.054688 C 231.058594 369.703125 228.363281 370.394531 225.898438 371.023438 C 223.078125 371.453125 220.257812 371.882812 217.644531 372.277344 C 216.214844 372.496094 216.140625 372.507812 215.5 372.601562 C 214.921875 372.691406 214.386719 372.773438 214 372.832031 C 211.917969 373.148438 210.257812 373.398438 208.167969 373.714844 C 204.46875 374.03125 203.964844 373.960938 202.097656 374.085938 C 198.941406 374.242188 195.941406 374.394531 192.628906 374.5625 C 191.691406 374.609375 190.839844 374.648438 190.417969 374.671875 C 189.8125 374.703125 189.25 374.730469 188.695312 374.757812 C 196.796875 374.304688 201.875 374.183594 208.472656 373.664062 " fill-opacity="1" fill-rule="nonzero"/></g><path fill="#ff751f" d="M 41.671875 302.734375 C 39.3125 299.714844 37.742188 297.671875 35.960938 295.171875 C 38.238281 298.054688 39.667969 300 41.671875 302.734375 " fill-opacity="1" fill-rule="nonzero"/><path fill="#ff751f" d="M 51.425781 313.9375 C 53.699219 316.40625 55.113281 317.941406 57.375 320.394531 C 55.101562 317.925781 53.679688 316.382812 51.425781 313.9375 " fill-opacity="1" fill-rule="nonzero"/><path fill="#ff751f" d="M 47.878906 310.4375 L 50.597656 313.429688 L 50.398438 313.265625 L 47.738281 310.359375 L 47.878906 310.4375 " fill-opacity="1" fill-rule="nonzero"/><path fill="#ff751f" d="M 275.324219 31.046875 L 272.472656 29.691406 L 272.492188 29.65625 L 275.25 30.953125 L 275.34375 31.015625 L 275.324219 31.046875 " fill-opacity="1" fill-rule="nonzero"/><path fill="#ff751f" d="M 275.34375 31.015625 L 275.25 30.953125 L 275.34375 31.007812 Z M 275.34375 31.015625 " fill-opacity="1" fill-rule="nonzero"/><path fill="#ff751f" d="M 47.027344 309.238281 C 47.136719 309.363281 47.277344 309.519531 47.339844 309.589844 C 47.375 309.636719 47.273438 309.53125 47.230469 309.496094 C 47.121094 309.378906 46.980469 309.21875 46.917969 309.144531 C 46.878906 309.101562 46.984375 309.203125 47.027344 309.238281 " fill-opacity="1" fill-rule="nonzero"/><path fill="#ff751f" d="M 44.601562 306.273438 L 44.332031 305.90625 L 44.566406 306.199219 Z M 44.601562 306.273438 " fill-opacity="1" fill-rule="nonzero"/><g clip-path="url(#3c43aa1866)"><path fill="#ff751f" d="M 163.054688 158.714844 L 211.734375 185.347656 L 211.734375 129.015625 L 163.054688 102.382812 Z M 213.109375 189.046875 C 212.882812 189.046875 212.65625 188.992188 212.449219 188.878906 L 161.015625 160.742188 C 160.574219 160.5 160.300781 160.035156 160.300781 159.53125 L 160.300781 100.058594 C 160.300781 99.574219 160.554688 99.125 160.976562 98.875 C 161.394531 98.625 161.910156 98.617188 162.339844 98.851562 L 213.773438 126.988281 C 214.214844 127.230469 214.488281 127.695312 214.488281 128.199219 L 214.488281 187.671875 C 214.488281 188.15625 214.230469 188.609375 213.8125 188.855469 C 213.597656 188.984375 213.351562 189.046875 213.109375 189.046875 " fill-opacity="1" fill-rule="nonzero"/></g><g clip-path="url(#54a4336c3e)"><path fill="#ff751f" d="M 214.488281 129.015625 L 214.488281 185.347656 L 263.167969 158.714844 L 263.167969 102.382812 Z M 213.109375 189.046875 C 212.867188 189.046875 212.625 188.984375 212.40625 188.855469 C 211.988281 188.609375 211.734375 188.15625 211.734375 187.671875 L 211.734375 128.199219 C 211.734375 127.695312 212.007812 127.230469 212.449219 126.988281 L 263.882812 98.851562 C 264.308594 98.617188 264.828125 98.625 265.246094 98.875 C 265.664062 99.125 265.921875 99.574219 265.921875 100.058594 L 265.921875 159.53125 C 265.921875 160.035156 265.648438 160.5 265.203125 160.742188 L 213.773438 188.878906 C 213.566406 188.992188 213.335938 189.046875 213.109375 189.046875 " fill-opacity="1" fill-rule="nonzero"/></g><g clip-path="url(#1f89a6a244)"><path fill="#ff751f" d="M 164.53125 100.050781 L 213.109375 126.628906 L 261.6875 99.871094 L 213.113281 73.113281 Z M 213.109375 129.578125 C 212.882812 129.578125 212.65625 129.519531 212.449219 129.40625 L 161.015625 101.269531 C 160.574219 101.027344 160.300781 100.566406 160.300781 100.0625 C 160.296875 99.5625 160.570312 99.097656 161.007812 98.855469 L 212.441406 70.335938 C 212.855469 70.105469 213.359375 70.105469 213.773438 70.332031 L 265.207031 98.664062 C 265.648438 98.90625 265.921875 99.367188 265.921875 99.871094 C 265.921875 100.371094 265.648438 100.832031 265.207031 101.078125 L 213.773438 129.40625 C 213.566406 129.519531 213.339844 129.578125 213.109375 129.578125 " fill-opacity="1" fill-rule="nonzero"/></g><g clip-path="url(#b8d169f6df)"><path fill="#ff751f" d="M 111.84375 187.074219 L 160.519531 213.707031 L 160.519531 157.371094 L 111.84375 130.742188 Z M 161.898438 217.40625 C 161.671875 217.40625 161.445312 217.351562 161.238281 217.238281 L 109.804688 189.097656 C 109.363281 188.859375 109.085938 188.394531 109.085938 187.890625 L 109.085938 128.417969 C 109.085938 127.929688 109.34375 127.480469 109.761719 127.234375 C 110.179688 126.984375 110.699219 126.976562 111.125 127.210938 L 162.558594 155.347656 C 163 155.589844 163.277344 156.050781 163.277344 156.554688 L 163.277344 216.027344 C 163.277344 216.515625 163.019531 216.964844 162.601562 217.214844 C 162.382812 217.34375 162.140625 217.40625 161.898438 217.40625 " fill-opacity="1" fill-rule="nonzero"/></g><g clip-path="url(#30dfda8e54)"><path fill="#ff751f" d="M 163.277344 157.371094 L 163.277344 213.707031 L 211.953125 187.074219 L 211.953125 130.742188 Z M 161.898438 217.40625 C 161.65625 217.40625 161.414062 217.34375 161.195312 217.214844 C 160.777344 216.964844 160.519531 216.515625 160.519531 216.027344 L 160.519531 156.554688 C 160.519531 156.050781 160.796875 155.589844 161.238281 155.347656 L 212.671875 127.210938 C 213.097656 126.976562 213.617188 126.984375 214.035156 127.234375 C 214.453125 127.480469 214.707031 127.929688 214.707031 128.417969 L 214.707031 187.890625 C 214.707031 188.394531 214.433594 188.859375 213.992188 189.097656 L 162.558594 217.238281 C 162.351562 217.351562 162.125 217.40625 161.898438 217.40625 " fill-opacity="1" fill-rule="nonzero"/></g><g clip-path="url(#2cef1973bd)"><path fill="#ff751f" d="M 113.320312 128.410156 L 161.894531 154.984375 L 210.476562 128.226562 L 161.902344 101.472656 Z M 161.898438 157.933594 C 161.671875 157.933594 161.441406 157.878906 161.238281 157.765625 L 109.804688 129.625 C 109.363281 129.386719 109.089844 128.925781 109.085938 128.421875 C 109.085938 127.921875 109.359375 127.457031 109.796875 127.214844 L 161.230469 98.691406 C 161.644531 98.464844 162.148438 98.464844 162.5625 98.691406 L 213.996094 127.019531 C 214.4375 127.261719 214.707031 127.726562 214.707031 128.226562 C 214.707031 128.730469 214.4375 129.191406 213.996094 129.433594 L 162.5625 157.761719 C 162.355469 157.875 162.128906 157.933594 161.898438 157.933594 " fill-opacity="1" fill-rule="nonzero"/></g><g clip-path="url(#bb0ae10148)"><path fill="#ff751f" d="M 111.84375 246.582031 L 160.519531 273.214844 L 160.519531 216.882812 L 111.84375 190.25 Z M 161.898438 276.914062 C 161.671875 276.914062 161.445312 276.859375 161.238281 276.746094 L 109.804688 248.609375 C 109.363281 248.367188 109.085938 247.902344 109.085938 247.398438 L 109.085938 187.925781 C 109.085938 187.441406 109.34375 186.988281 109.761719 186.742188 C 110.179688 186.492188 110.699219 186.484375 111.125 186.71875 L 162.558594 214.855469 C 163 215.097656 163.277344 215.5625 163.277344 216.066406 L 163.277344 275.539062 C 163.277344 276.023438 163.019531 276.476562 162.601562 276.722656 C 162.382812 276.851562 162.140625 276.914062 161.898438 276.914062 " fill-opacity="1" fill-rule="nonzero"/></g><g clip-path="url(#5054d24699)"><path fill="#ff751f" d="M 163.277344 216.882812 L 163.277344 273.214844 L 211.953125 246.582031 L 211.953125 190.25 Z M 161.898438 276.914062 C 161.65625 276.914062 161.414062 276.851562 161.195312 276.722656 C 160.777344 276.476562 160.519531 276.023438 160.519531 275.539062 L 160.519531 216.066406 C 160.519531 215.5625 160.796875 215.097656 161.238281 214.855469 L 212.671875 186.71875 C 213.097656 186.484375 213.617188 186.492188 214.035156 186.742188 C 214.453125 186.988281 214.707031 187.441406 214.707031 187.925781 L 214.707031 247.398438 C 214.707031 247.902344 214.433594 248.367188 213.992188 248.609375 L 162.558594 276.746094 C 162.351562 276.859375 162.125 276.914062 161.898438 276.914062 " fill-opacity="1" fill-rule="nonzero"/></g><g clip-path="url(#37cb1b15bf)"><path fill="#ff751f" d="M 113.320312 187.917969 L 161.894531 214.492188 L 210.476562 187.738281 L 161.902344 160.980469 Z M 161.898438 217.441406 C 161.671875 217.441406 161.441406 217.386719 161.238281 217.273438 L 109.804688 189.136719 C 109.363281 188.894531 109.089844 188.433594 109.085938 187.929688 C 109.085938 187.429688 109.359375 186.964844 109.796875 186.722656 L 161.230469 158.203125 C 161.644531 157.972656 162.148438 157.972656 162.5625 158.199219 L 213.996094 186.53125 C 214.4375 186.773438 214.707031 187.234375 214.707031 187.738281 C 214.707031 188.238281 214.4375 188.699219 213.996094 188.941406 L 162.5625 217.273438 C 162.355469 217.386719 162.128906 217.441406 161.898438 217.441406 " fill-opacity="1" fill-rule="nonzero"/></g><g clip-path="url(#a3b5173308)"><path fill="#ff751f" d="M 163.054688 274.53125 L 211.734375 301.160156 L 211.734375 244.828125 L 163.054688 218.199219 Z M 213.109375 304.863281 C 212.882812 304.863281 212.65625 304.804688 212.449219 304.691406 L 161.015625 276.554688 C 160.574219 276.3125 160.300781 275.851562 160.300781 275.347656 L 160.300781 215.875 C 160.300781 215.386719 160.554688 214.9375 160.976562 214.6875 C 161.394531 214.441406 161.910156 214.433594 162.339844 214.664062 L 213.773438 242.804688 C 214.214844 243.046875 214.488281 243.507812 214.488281 244.011719 L 214.488281 303.484375 C 214.488281 303.972656 214.230469 304.421875 213.8125 304.667969 C 213.597656 304.796875 213.351562 304.863281 213.109375 304.863281 " fill-opacity="1" fill-rule="nonzero"/></g><g clip-path="url(#de7ffdbf2c)"><path fill="#ff751f" d="M 214.488281 244.828125 L 214.488281 301.160156 L 263.167969 274.53125 L 263.167969 218.199219 Z M 213.109375 304.863281 C 212.867188 304.863281 212.625 304.796875 212.40625 304.667969 C 211.988281 304.421875 211.734375 303.972656 211.734375 303.484375 L 211.734375 244.011719 C 211.734375 243.507812 212.007812 243.046875 212.449219 242.804688 L 263.882812 214.664062 C 264.308594 214.433594 264.828125 214.441406 265.246094 214.6875 C 265.664062 214.9375 265.921875 215.386719 265.921875 215.875 L 265.921875 275.347656 C 265.921875 275.851562 265.648438 276.3125 265.203125 276.554688 L 213.773438 304.691406 C 213.566406 304.804688 213.335938 304.863281 213.109375 304.863281 " fill-opacity="1" fill-rule="nonzero"/></g><g clip-path="url(#b583e0c864)"><path fill="#ff751f" d="M 164.53125 215.867188 L 213.109375 242.441406 L 261.6875 215.683594 L 213.113281 188.925781 Z M 213.109375 245.390625 C 212.882812 245.390625 212.65625 245.332031 212.449219 245.21875 L 161.015625 217.082031 C 160.574219 216.839844 160.300781 216.378906 160.300781 215.878906 C 160.296875 215.375 160.570312 214.914062 161.007812 214.667969 L 212.441406 186.148438 C 212.855469 185.917969 213.359375 185.917969 213.773438 186.148438 L 265.207031 214.476562 C 265.648438 214.71875 265.921875 215.179688 265.921875 215.683594 C 265.921875 216.183594 265.648438 216.648438 265.207031 216.890625 L 213.773438 245.21875 C 213.566406 245.332031 213.339844 245.390625 213.109375 245.390625 " fill-opacity="1" fill-rule="nonzero"/></g></g></g></svg>